<?xml version="1.0" standalone="no"?>
<!DOCTYPE svg PUBLIC "-//W3C//DTD SVG 20010904//EN"
 "http://www.w3.org/TR/2001/REC-SVG-20010904/DTD/svg10.dtd">
<svg version="1.0" xmlns="http://www.w3.org/2000/svg"
 width="500.000000pt" height="500.000000pt" viewBox="0 0 500.000000 500.000000"
 preserveAspectRatio="xMidYMid meet">

<g transform="translate(0.000000,500.000000) scale(0.100000,-0.100000)"
fill="rgba(17,16,16,0.17)" stroke="none">
<path d="M3185 4412 c-44 -21 -90 -80 -106 -135 -11 -42 -5 -59 109 -302 138
-293 216 -513 268 -752 83 -384 97 -826 38 -1238 -46 -330 -135 -596 -350
-1055 -78 -167 -82 -195 -38 -268 41 -67 98 -95 181 -89 35 3 74 12 88 21 40
26 87 98 160 245 190 380 323 827 370 1234 26 229 21 699 -10 926 -57 408
-176 792 -362 1167 -71 141 -118 214 -158 240 -39 25 -142 29 -190 6z"/>
<path d="M2445 4026 c-39 -17 -90 -75 -105 -120 -16 -48 3 -109 86 -284 170
-358 235 -596 264 -977 12 -152 7 -296 -16 -475 -33 -255 -105 -486 -246 -788
-107 -228 -113 -257 -62 -338 40 -65 100 -97 171 -92 88 7 154 70 236 226 141
269 253 635 299 982 20 148 16 568 -5 715 -52 350 -136 613 -295 930 -73 146
-107 194 -155 215 -49 23 -128 25 -172 6z"/>
<path d="M1710 3645 c-46 -21 -78 -52 -102 -99 -33 -65 -26 -100 52 -267 160
-339 219 -620 191 -908 -21 -228 -67 -386 -179 -626 -81 -174 -94 -214 -82
-256 26 -89 106 -152 194 -152 98 0 143 43 235 223 114 223 184 432 212 640
16 119 16 476 0 590 -29 202 -87 389 -186 595 -67 138 -116 214 -161 244 -45
31 -125 38 -174 16z"/>
<path d="M1000 3275 c-73 -33 -123 -108 -124 -185 0 -37 14 -72 76 -190 101
-192 122 -263 122 -405 0 -155 -25 -233 -149 -459 -39 -71 -49 -99 -49 -135 1
-103 95 -202 191 -201 84 1 183 94 261 247 139 273 170 586 86 882 -52 183
-179 392 -265 437 -45 23 -109 26 -149 9z"/>
</g>
</svg>
