<?xml version="1.0" standalone="no"?>
<!DOCTYPE svg PUBLIC "-//W3C//DTD SVG 20010904//EN"
 "http://www.w3.org/TR/2001/REC-SVG-20010904/DTD/svg10.dtd">
<svg version="1.0" xmlns="http://www.w3.org/2000/svg"
 width="512.000000pt" height="512.000000pt" viewBox="0 0 512.000000 512.000000"
 preserveAspectRatio="xMidYMid meet">

<g transform="translate(0.000000,512.000000) scale(0.100000,-0.100000)"
fill="rgba(17,16,16,0.17)" stroke="none">
<path d="M2321 5109 c-253 -45 -472 -221 -572 -457 -33 -79 -62 -214 -57 -268
l3 -39 56 -7 c87 -11 215 -46 309 -85 270 -111 485 -287 649 -531 l42 -63 59
34 c212 119 345 305 387 542 17 103 13 224 -12 320 -22 82 -86 208 -140 277
-92 117 -255 224 -400 263 -74 19 -251 27 -324 14z"/>
<path d="M1410 4049 c-356 -41 -687 -277 -845 -604 -206 -425 -121 -925 214
-1255 372 -368 938 -421 1378 -130 199 131 369 366 437 602 187 648 -257 1313
-927 1387 -108 12 -149 12 -257 0z m218 -351 c7 -7 12 -38 12 -69 0 -69 8 -77
95 -95 90 -19 139 -44 143 -72 4 -27 -36 -164 -50 -173 -5 -4 -42 5 -81 19
-97 35 -231 38 -273 6 -59 -44 -53 -113 14 -156 21 -13 87 -45 147 -72 61 -26
131 -63 157 -81 122 -89 169 -242 116 -382 -30 -82 -113 -163 -196 -193 -35
-13 -66 -28 -70 -34 -4 -6 -9 -47 -12 -91 l-5 -80 -78 -3 c-50 -2 -84 1 -93 9
-9 7 -14 32 -14 73 0 33 -4 66 -8 73 -4 7 -39 19 -77 27 -136 29 -195 59 -195
99 0 32 39 154 53 165 8 7 29 3 69 -14 135 -57 264 -65 330 -20 102 69 62 162
-101 232 -262 112 -341 191 -341 345 0 135 66 234 200 298 l75 36 5 70 c3 39
9 76 14 83 10 16 148 16 164 0z"/>
<path d="M3710 3674 c-187 -41 -361 -135 -453 -246 l-34 -41 -64 16 c-66 16
-184 33 -277 40 -46 4 -52 2 -47 -12 4 -9 20 -67 35 -128 87 -336 38 -713
-131 -1008 -250 -436 -690 -695 -1184 -695 -137 -1 -240 10 -340 36 -141 37
-291 101 -402 173 l-63 41 0 -73 c0 -187 79 -476 183 -667 86 -158 150 -243
307 -405 179 -184 200 -231 209 -477 6 -166 6 -168 34 -195 l27 -28 345 -3
c301 -2 350 -1 379 13 19 9 38 24 42 33 5 9 11 62 14 117 3 55 8 99 13 98 4
-2 114 -3 246 -3 l239 0 4 -92 c4 -101 19 -136 64 -156 17 -8 128 -12 360 -12
373 0 383 2 410 65 9 23 14 73 14 147 0 216 31 279 240 493 217 223 339 414
415 652 l27 83 58 -7 c108 -11 200 39 255 138 l30 54 0 230 c0 212 -2 233 -21
275 -47 102 -135 155 -251 153 l-72 -1 -25 81 c-36 114 -134 304 -214 417 -37
52 -115 143 -174 203 l-108 108 0 87 c0 108 18 180 71 283 60 116 52 182 -26
215 -40 17 -50 16 -135 -2z m58 -1131 c51 -38 67 -70 67 -133 0 -44 -5 -66
-21 -87 -68 -90 -198 -87 -261 7 -52 76 -13 191 77 229 35 15 108 7 138 -16z"/>
</g>
</svg>
